<?xml version="1.0" encoding="UTF-8"?>
<svg width="30px" height="30px" viewBox="0 0 30 30" version="1.1" xmlns="http://www.w3.org/2000/svg" xmlns:xlink="http://www.w3.org/1999/xlink">
    <!-- Generator: Sketch 53.1 (72631) - https://sketchapp.com -->
    <title>tx</title>
    <desc>Created with Sketch.</desc>
    <g id="Page-1" stroke="none" stroke-width="1" fill="none" fill-rule="evenodd">
        <g id="黑名单检测-copy" transform="translate(-40.000000, -304.000000)">
            <g id="分组-5" transform="translate(15.000000, 286.000000)">
                <g id="tx" transform="translate(25.000000, 18.000000)">
                    <circle id="Oval" stroke="#979797" stroke-width="0.5" opacity="0.369140625" cx="15" cy="15" r="14.75"></circle>
                    <path d="M19.2114948,17.8927996 L17.112626,17.0757313 C17.112626,17.0757313 16.7123484,16.9204864 16.5568926,16.7678275 C16.4569044,16.6696731 16.46416,16.4381915 16.5525856,16.1424294 C16.6410112,15.8467137 17.7170244,14.6448671 17.7170244,13.5530964 C17.7170244,11.8670531 16.6073684,10.5 15.2386812,10.5 C13.8700986,10.5 12.7605355,11.8670531 12.7605355,13.5531892 C12.7605355,14.5988862 13.719356,15.8454844 13.8376747,16.0720258 C13.9560747,16.2986136 13.927238,16.64394 13.8337741,16.7485306 C13.6933751,16.9056774 13.1804903,17.0631837 13.1804903,17.0631837 L11.2883658,17.9055327 C10.8463655,18.0642103 10.5,18.4806592 10.5,18.9505456 L10.5,19.1734225 C10.5,19.6862167 10.9169249,20 11.4293105,20 L19.0705618,20 C19.5830751,20 20,19.6862167 20,19.1734225 L20,18.9505456 C20,18.4805664 19.6536345,18.0513495 19.2114948,17.8927996 Z" id="Fill-1" fill-opacity="0.525540865" fill="#28284D"></path>
                </g>
            </g>
        </g>
    </g>
</svg>